<svg xmlns="http://www.w3.org/2000/svg" viewBox="0 0 1800 1200" font-family="Georgia, 'Times New Roman', serif">
  <style>
    .lbl { font-size: 22px; fill: #2c3e50; font-style: italic; }
    .char { font-size: 15px; fill: #41637d; font-family: 'Courier New', monospace; }
    .snd { font-size: 14px; fill: #41637d; font-style: italic; }
    .wm { font-size: 26px; fill: #9aa3ab; letter-spacing: 0.35em; font-family: 'Courier New', monospace; }
  </style>

  <rect width="1800" height="1200" fill="#fdfdfb"/>

  <!-- shallow water tints and contours -->
  <g id="layer-depths">
    <path d="M 1330.5 448.9 Q 1328.4 477.8 1304.5 499.5 Q 1280.6 521.1 1260.4 546.9 Q 1240.2 572.6 1203.7 580.4 Q 1167.1 588.2 1129.8 589.5 Q 1092.4 590.8 1056.9 580.6 Q 1021.4 570.5 994.5 549.7 Q 967.7 528.9 948.5 503.6 Q 929.3 478.4 932.1 449.2 Q 934.9 420 931.5 390.6 Q 928.2 361.2 953.9 340.1 Q 979.6 319.1 1000.2 293.9 Q 1020.8 268.7 1057.5 263.4 Q 1094.3 258.1 1130.9 253.9 Q 1167.5 249.7 1198.9 265.4 Q 1230.3 281 1263.8 294.4 Q 1297.2 307.7 1310.5 335.6 Q 1323.7 363.6 1328.2 391.8 Q 1332.6 420 1330.5 448.9 Z" fill="#d9e8f2" opacity="0.6"/>
    <path d="M 724.05 867.75 Q 712.2 885.5 702.5 904.4 Q 692.9 923.2 668 927 Q 643.1 930.8 618.8 935.3 Q 594.4 939.8 574 928.2 Q 553.6 916.6 537.1 902.5 Q 520.6 888.3 520.2 869.1 Q 519.7 850 521.4 831.4 Q 523.1 812.7 535.3 794.9 Q 547.4 777.1 572.3 773.5 Q 597.2 770 620.9 767 Q 644.6 763.9 668.4 770.8 Q 692.1 777.6 701 796.5 Q 709.8 815.4 722.8 832.7 Q 735.9 850 724 867.8 Z" fill="#d9e8f2" opacity="0.6"/>
    <path d="M 1667.3 902 Q 1671.1 924 1649.5 938.2 Q 1627.9 952.4 1612.8 970 Q 1597.6 987.5 1571.7 992 Q 1545.7 996.5 1520.6 994.1 Q 1495.4 991.7 1468.6 990.1 Q 1441.7 988.5 1423.3 973 Q 1404.8 957.4 1393.3 938.8 Q 1381.7 920.3 1373 900.1 Q 1364.3 880 1372.7 859.8 Q 1381 839.5 1389.8 819 Q 1398.5 798.4 1423.6 789.8 Q 1448.7 781.1 1470.4 767.4 Q 1492.1 753.6 1519.8 754.1 Q 1547.6 754.6 1568.7 769 Q 1589.7 783.4 1616.2 790.5 Q 1642.7 797.6 1655.9 817.1 Q 1669.1 836.6 1666.3 858.3 Q 1663.5 880 1667.3 902 Z" fill="#d9e8f2" opacity="0.6"/>
    <path d="M 0 620 Q 300 560 560 640 T 1040 760 T 1500 1020" fill="none" stroke="#a8c2d4" stroke-width="1.4"/>
    <path d="M 60 900 Q 380 820 700 950 T 1240 1080" fill="none" stroke="#a8c2d4" stroke-width="1.4"/>
    <!-- shoal (hazard) -->
    <path d="M 1240 700 L 1330 660 L 1420 700 L 1400 790 L 1290 810 Z" fill="#d9e8f2" stroke="#8fb3c7" stroke-width="1.6" stroke-dasharray="6 5"/>
    <text x="1315" y="745" class="snd" font-weight="bold">1,8</text>
    <text x="1300" y="775" class="snd">Stengrundet</text>
  </g>

  <!-- land -->
  <g id="layer-land">
    <path d="M -40 -40 L 640 -40 L 560 60 L 470 110 L 420 200 L 330 250 L 260 340 L 190 370 L 120 460 L 40 500 L -40 520 Z" fill="#ece1b4" stroke="#b3a26b" stroke-width="2.4"/>
    <path d="M 1291.25 441.8 Q 1279.8 463.6 1253.5 474.5 Q 1227.3 485.3 1212.2 499.1 Q 1197.1 513 1178.5 534.5 Q 1160 556.1 1133 542.6 Q 1105.9 529.1 1074.5 534.9 Q 1043 540.6 1022.5 523.3 Q 1001.9 506 1004 481.1 Q 1006 456.1 1001.3 438.1 Q 996.5 420 982.2 396.4 Q 967.9 372.8 995.9 360.8 Q 1023.9 348.8 1043 337.3 Q 1062 325.8 1080.8 304.1 Q 1099.7 282.5 1129.5 285 Q 1159.2 287.5 1188.1 293.5 Q 1217 299.5 1235 318.4 Q 1253.1 337.4 1263.8 357.6 Q 1274.6 377.9 1288.7 398.9 Q 1302.7 420 1291.3 441.8 Z" fill="#ece1b4" stroke="#b3a26b" stroke-width="2.4"/>
    <path d="M 1608 891.6 Q 1599.8 903.2 1591.6 912.9 Q 1583.4 922.6 1577.2 936.6 Q 1570.9 950.6 1553.8 952.9 Q 1536.6 955.1 1521.3 949 Q 1506.1 942.9 1487.9 946.3 Q 1469.7 949.7 1459.2 938.8 Q 1448.7 927.8 1444.6 915.5 Q 1440.5 903.2 1432.8 891.6 Q 1425.2 880 1435.2 869.1 Q 1445.1 858.2 1444.8 843.8 Q 1444.6 829.4 1459.9 823.8 Q 1475.3 818.1 1488.5 807.5 Q 1501.7 796.8 1519.2 800.6 Q 1536.7 804.4 1548.2 814.8 Q 1559.6 825.2 1576.3 828.2 Q 1592.9 831.1 1603.3 841.9 Q 1613.7 852.7 1615 866.4 Q 1616.2 880 1608 891.6 Z" fill="#ece1b4" stroke="#b3a26b" stroke-width="2.4"/>
    <path d="M 670.4 860.8 Q 666.8 871.6 656.2 878.5 Q 645.6 885.5 632.8 888.7 Q 620 891.9 603.4 894 Q 586.8 896 577.8 884.9 Q 568.7 873.7 569.2 861.9 Q 569.7 850 567.3 837.3 Q 564.8 824.5 575.5 813.9 Q 586.3 803.3 603.1 802.1 Q 620 801 633.9 806.3 Q 647.8 811.5 654 821.5 Q 660.3 831.4 667.1 840.7 Q 674 850 670.4 860.8 Z" fill="#ece1b4" stroke="#b3a26b" stroke-width="2.4"/>
    <text x="1080" y="420" class="lbl" font-size="26">Ekholmen</text>
    <text x="1470" y="880" class="lbl">Sälskär</text>
    <text x="585" y="855" class="lbl" font-size="18">Lillgrund</text>
    <text x="150" y="150" class="lbl" font-size="30">Grundviken</text>
  </g>

  <!-- soundings -->
  <g id="layer-soundings">
    <text x="924.7" y="631.1" class="snd" text-anchor="middle">10,7</text>
    <text x="456.9" y="1005.1" class="snd" text-anchor="middle">12,8</text>
    <text x="1516.5" y="717.3" class="snd" text-anchor="middle">4,4</text>
    <text x="797.4" y="332.6" class="snd" text-anchor="middle">22,2</text>
    <text x="971" y="263.4" class="snd" text-anchor="middle">29,4</text>
    <text x="151.6" y="940.9" class="snd" text-anchor="middle">17,5</text>
    <text x="231.9" y="622.4" class="snd" text-anchor="middle">22</text>
    <text x="554.8" y="552.1" class="snd" text-anchor="middle">27,6</text>
    <text x="979" y="976.4" class="snd" text-anchor="middle">18,6</text>
    <text x="980.9" y="142.2" class="snd" text-anchor="middle">29,9</text>
    <text x="797" y="155.6" class="snd" text-anchor="middle">26,7</text>
    <text x="944.2" y="703.5" class="snd" text-anchor="middle">29,3</text>
    <text x="649" y="1074.9" class="snd" text-anchor="middle">8,7</text>
    <text x="1050.6" y="884.8" class="snd" text-anchor="middle">4,4</text>
    <text x="1248.9" y="835.5" class="snd" text-anchor="middle">25,4</text>
    <text x="1632.4" y="427.2" class="snd" text-anchor="middle">27,8</text>
    <text x="1235.8" y="1050.8" class="snd" text-anchor="middle">4,6</text>
    <text x="784.9" y="467" class="snd" text-anchor="middle">27,2</text>
    <text x="758.5" y="1027.1" class="snd" text-anchor="middle">4,5</text>
    <text x="1182.5" y="974.1" class="snd" text-anchor="middle">4,4</text>
    <text x="160.2" y="726" class="snd" text-anchor="middle">30,7</text>
    <text x="1121.9" y="104.8" class="snd" text-anchor="middle">25</text>
    <text x="1526.3" y="422.8" class="snd" text-anchor="middle">19</text>
    <text x="337.3" y="585" class="snd" text-anchor="middle">25,8</text>
    <text x="458.6" y="1088.3" class="snd" text-anchor="middle">24,8</text>
    <text x="1651.2" y="614.5" class="snd" text-anchor="middle">22,1</text>
    <text x="1413.5" y="104.4" class="snd" text-anchor="middle">21,7</text>
    <text x="1103.7" y="1031.7" class="snd" text-anchor="middle">7</text>
    <text x="1684.4" y="1039.6" class="snd" text-anchor="middle">23,6</text>
    <text x="574.3" y="651.3" class="snd" text-anchor="middle">13,3</text>
    <text x="1525.2" y="1085.2" class="snd" text-anchor="middle">28,5</text>
  </g>

  <!-- marks and lights -->
  <g id="layer-marks">
  <g class="feature" data-id="fyr-norrgrund">
    <circle cx="830" cy="210" r="6" fill="#1b1b1b"/>
    <circle cx="830" cy="210" r="12" fill="none" stroke="#c0392b" stroke-width="2"/>
    <path d="M 814 194 l 6 6 M 846 194 l -6 6 M 814 226 l 6 -6 M 846 226 l -6 -6" stroke="#c0392b" stroke-width="1.4"/>
    <text x="850" y="198" class="lbl">Norrgrund</text>
    <text x="850" y="214" class="char">Fl(2) 10s</text>
  </g>
  <g class="feature" data-id="hamn-grundviken">
    <circle cx="350" cy="300" r="7" fill="none" stroke="#2c3e50" stroke-width="2.4"/>
    <path d="M 350 293 v 14 M 343 300 h 14" stroke="#2c3e50" stroke-width="2.4"/>
    <text x="364" y="305" class="lbl">Grundviken</text>
  </g>
  <g class="feature" data-id="sb-1">
    <line x1="600" y1="520" x2="600" y2="502" stroke="#1e8449" stroke-width="3"/>
    <path d="M 593 502 h 14 l -7 -14 z" fill="#1e8449"/>
    <text x="612" y="502" class="char">SB 1</text>
  </g>
  <g class="feature" data-id="bb-1">
    <line x1="700" y1="430" x2="700" y2="412" stroke="#c0392b" stroke-width="3"/>
    <rect x="694" y="400" width="12" height="12" fill="#c0392b"/>
    <text x="712" y="412" class="char">BB 1</text>
  </g>
  <g class="feature" data-id="sb-2">
    <line x1="960" y1="700" x2="960" y2="682" stroke="#1e8449" stroke-width="3"/>
    <path d="M 953 682 h 14 l -7 -14 z" fill="#1e8449"/>
    <text x="972" y="682" class="char">SB 2</text>
  </g>
  <g class="feature" data-id="nordprick-tva-systrar">
    <line x1="1330" y1="620" x2="1330" y2="600" stroke="#1b1b1b" stroke-width="3"/>
    <path d="M 1324 600 h 12 l -6 -10 z" fill="#1b1b1b"/>
    <path d="M 1324 588 h 12 l -6 -10 z" fill="#1b1b1b"/>
    <text x="1342" y="596" class="char">Två systrar</text>
  </g>
  <g class="feature" data-id="ankarplats-ekholmen">
    <path d="M 1060 610 v 18 M 1052 618 h 16 M 1051 624 q 9 10 18 0" fill="none" stroke="#2c3e50" stroke-width="2"/>
    <circle cx="1060" cy="608" r="3" fill="none" stroke="#2c3e50" stroke-width="2"/>
  </g>
  </g>

  <!-- graticule + rose -->
  <g id="layer-graticule"><line x1="120" y1="0" x2="120" y2="14" stroke="#c8c2ae" stroke-width="1"/><line x1="120" y1="1200" x2="120" y2="1186" stroke="#c8c2ae" stroke-width="1"/><line x1="240" y1="0" x2="240" y2="14" stroke="#c8c2ae" stroke-width="1"/><line x1="240" y1="1200" x2="240" y2="1186" stroke="#c8c2ae" stroke-width="1"/><line x1="360" y1="0" x2="360" y2="14" stroke="#c8c2ae" stroke-width="1"/><line x1="360" y1="1200" x2="360" y2="1186" stroke="#c8c2ae" stroke-width="1"/><line x1="480" y1="0" x2="480" y2="14" stroke="#c8c2ae" stroke-width="1"/><line x1="480" y1="1200" x2="480" y2="1186" stroke="#c8c2ae" stroke-width="1"/><line x1="600" y1="0" x2="600" y2="14" stroke="#c8c2ae" stroke-width="1"/><line x1="600" y1="1200" x2="600" y2="1186" stroke="#c8c2ae" stroke-width="1"/><line x1="720" y1="0" x2="720" y2="14" stroke="#c8c2ae" stroke-width="1"/><line x1="720" y1="1200" x2="720" y2="1186" stroke="#c8c2ae" stroke-width="1"/><line x1="840" y1="0" x2="840" y2="14" stroke="#c8c2ae" stroke-width="1"/><line x1="840" y1="1200" x2="840" y2="1186" stroke="#c8c2ae" stroke-width="1"/><line x1="960" y1="0" x2="960" y2="14" stroke="#c8c2ae" stroke-width="1"/><line x1="960" y1="1200" x2="960" y2="1186" stroke="#c8c2ae" stroke-width="1"/><line x1="1080" y1="0" x2="1080" y2="14" stroke="#c8c2ae" stroke-width="1"/><line x1="1080" y1="1200" x2="1080" y2="1186" stroke="#c8c2ae" stroke-width="1"/><line x1="1200" y1="0" x2="1200" y2="14" stroke="#c8c2ae" stroke-width="1"/><line x1="1200" y1="1200" x2="1200" y2="1186" stroke="#c8c2ae" stroke-width="1"/><line x1="1320" y1="0" x2="1320" y2="14" stroke="#c8c2ae" stroke-width="1"/><line x1="1320" y1="1200" x2="1320" y2="1186" stroke="#c8c2ae" stroke-width="1"/><line x1="1440" y1="0" x2="1440" y2="14" stroke="#c8c2ae" stroke-width="1"/><line x1="1440" y1="1200" x2="1440" y2="1186" stroke="#c8c2ae" stroke-width="1"/><line x1="1560" y1="0" x2="1560" y2="14" stroke="#c8c2ae" stroke-width="1"/><line x1="1560" y1="1200" x2="1560" y2="1186" stroke="#c8c2ae" stroke-width="1"/><line x1="1680" y1="0" x2="1680" y2="14" stroke="#c8c2ae" stroke-width="1"/><line x1="1680" y1="1200" x2="1680" y2="1186" stroke="#c8c2ae" stroke-width="1"/><line x1="0" y1="120" x2="14" y2="120" stroke="#c8c2ae" stroke-width="1"/><line x1="1800" y1="120" x2="1786" y2="120" stroke="#c8c2ae" stroke-width="1"/><line x1="22" y1="120" x2="34" y2="120" stroke="#41637d" stroke-width="1"/><line x1="0" y1="240" x2="14" y2="240" stroke="#c8c2ae" stroke-width="1"/><line x1="1800" y1="240" x2="1786" y2="240" stroke="#c8c2ae" stroke-width="1"/><line x1="22" y1="240" x2="34" y2="240" stroke="#41637d" stroke-width="1"/><line x1="0" y1="360" x2="14" y2="360" stroke="#c8c2ae" stroke-width="1"/><line x1="1800" y1="360" x2="1786" y2="360" stroke="#c8c2ae" stroke-width="1"/><line x1="22" y1="360" x2="34" y2="360" stroke="#41637d" stroke-width="1"/><line x1="0" y1="480" x2="14" y2="480" stroke="#c8c2ae" stroke-width="1"/><line x1="1800" y1="480" x2="1786" y2="480" stroke="#c8c2ae" stroke-width="1"/><line x1="22" y1="480" x2="34" y2="480" stroke="#41637d" stroke-width="1"/><line x1="0" y1="600" x2="14" y2="600" stroke="#c8c2ae" stroke-width="1"/><line x1="1800" y1="600" x2="1786" y2="600" stroke="#c8c2ae" stroke-width="1"/><line x1="22" y1="600" x2="34" y2="600" stroke="#41637d" stroke-width="1"/><line x1="0" y1="720" x2="14" y2="720" stroke="#c8c2ae" stroke-width="1"/><line x1="1800" y1="720" x2="1786" y2="720" stroke="#c8c2ae" stroke-width="1"/><line x1="22" y1="720" x2="34" y2="720" stroke="#41637d" stroke-width="1"/><line x1="0" y1="840" x2="14" y2="840" stroke="#c8c2ae" stroke-width="1"/><line x1="1800" y1="840" x2="1786" y2="840" stroke="#c8c2ae" stroke-width="1"/><line x1="22" y1="840" x2="34" y2="840" stroke="#41637d" stroke-width="1"/><line x1="0" y1="960" x2="14" y2="960" stroke="#c8c2ae" stroke-width="1"/><line x1="1800" y1="960" x2="1786" y2="960" stroke="#c8c2ae" stroke-width="1"/><line x1="22" y1="960" x2="34" y2="960" stroke="#41637d" stroke-width="1"/><line x1="0" y1="1080" x2="14" y2="1080" stroke="#c8c2ae" stroke-width="1"/><line x1="1800" y1="1080" x2="1786" y2="1080" stroke="#c8c2ae" stroke-width="1"/><line x1="22" y1="1080" x2="34" y2="1080" stroke="#41637d" stroke-width="1"/></g>
  
  <g opacity="0.85">
    <circle cx="1560" cy="260" r="70" fill="none" stroke="#9aa5b1" stroke-width="1"/>
    <circle cx="1560" cy="260" r="44" fill="none" stroke="#9aa5b1" stroke-width="0.7"/>
    <line x1="1560" y1="206" x2="1560" y2="190" stroke="#9aa5b1" stroke-width="1.6"/><line x1="1570.8" y1="198.9" x2="1572.2" y2="191.1" stroke="#9aa5b1" stroke-width="0.8"/><line x1="1581.2" y1="201.7" x2="1583.9" y2="194.2" stroke="#9aa5b1" stroke-width="0.8"/><line x1="1591" y1="206.3" x2="1595" y2="199.4" stroke="#9aa5b1" stroke-width="0.8"/><line x1="1599.9" y1="212.5" x2="1605" y2="206.4" stroke="#9aa5b1" stroke-width="0.8"/><line x1="1607.5" y1="220.1" x2="1613.6" y2="215" stroke="#9aa5b1" stroke-width="0.8"/><line x1="1613.7" y1="229" x2="1620.6" y2="225" stroke="#9aa5b1" stroke-width="0.8"/><line x1="1618.3" y1="238.8" x2="1625.8" y2="236.1" stroke="#9aa5b1" stroke-width="0.8"/><line x1="1621.1" y1="249.2" x2="1628.9" y2="247.8" stroke="#9aa5b1" stroke-width="0.8"/><line x1="1614" y1="260" x2="1630" y2="260" stroke="#9aa5b1" stroke-width="1.6"/><line x1="1621.1" y1="270.8" x2="1628.9" y2="272.2" stroke="#9aa5b1" stroke-width="0.8"/><line x1="1618.3" y1="281.2" x2="1625.8" y2="283.9" stroke="#9aa5b1" stroke-width="0.8"/><line x1="1613.7" y1="291" x2="1620.6" y2="295" stroke="#9aa5b1" stroke-width="0.8"/><line x1="1607.5" y1="299.9" x2="1613.6" y2="305" stroke="#9aa5b1" stroke-width="0.8"/><line x1="1599.9" y1="307.5" x2="1605" y2="313.6" stroke="#9aa5b1" stroke-width="0.8"/><line x1="1591" y1="313.7" x2="1595" y2="320.6" stroke="#9aa5b1" stroke-width="0.8"/><line x1="1581.2" y1="318.3" x2="1583.9" y2="325.8" stroke="#9aa5b1" stroke-width="0.8"/><line x1="1570.8" y1="321.1" x2="1572.2" y2="328.9" stroke="#9aa5b1" stroke-width="0.8"/><line x1="1560" y1="314" x2="1560" y2="330" stroke="#9aa5b1" stroke-width="1.6"/><line x1="1549.2" y1="321.1" x2="1547.8" y2="328.9" stroke="#9aa5b1" stroke-width="0.8"/><line x1="1538.8" y1="318.3" x2="1536.1" y2="325.8" stroke="#9aa5b1" stroke-width="0.8"/><line x1="1529" y1="313.7" x2="1525" y2="320.6" stroke="#9aa5b1" stroke-width="0.8"/><line x1="1520.1" y1="307.5" x2="1515" y2="313.6" stroke="#9aa5b1" stroke-width="0.8"/><line x1="1512.5" y1="299.9" x2="1506.4" y2="305" stroke="#9aa5b1" stroke-width="0.8"/><line x1="1506.3" y1="291" x2="1499.4" y2="295" stroke="#9aa5b1" stroke-width="0.8"/><line x1="1501.7" y1="281.2" x2="1494.2" y2="283.9" stroke="#9aa5b1" stroke-width="0.8"/><line x1="1498.9" y1="270.8" x2="1491.1" y2="272.2" stroke="#9aa5b1" stroke-width="0.8"/><line x1="1506" y1="260" x2="1490" y2="260" stroke="#9aa5b1" stroke-width="1.6"/><line x1="1498.9" y1="249.2" x2="1491.1" y2="247.8" stroke="#9aa5b1" stroke-width="0.8"/><line x1="1501.7" y1="238.8" x2="1494.2" y2="236.1" stroke="#9aa5b1" stroke-width="0.8"/><line x1="1506.3" y1="229" x2="1499.4" y2="225" stroke="#9aa5b1" stroke-width="0.8"/><line x1="1512.5" y1="220.1" x2="1506.4" y2="215" stroke="#9aa5b1" stroke-width="0.8"/><line x1="1520.1" y1="212.5" x2="1515" y2="206.4" stroke="#9aa5b1" stroke-width="0.8"/><line x1="1529" y1="206.3" x2="1525" y2="199.4" stroke="#9aa5b1" stroke-width="0.8"/><line x1="1538.8" y1="201.7" x2="1536.1" y2="194.2" stroke="#9aa5b1" stroke-width="0.8"/><line x1="1549.2" y1="198.9" x2="1547.8" y2="191.1" stroke="#9aa5b1" stroke-width="0.8"/>
    <path d="M 1560 216 l 7 32 l -7 12 l -7 -12 z" fill="#9aa5b1"/>
    <text x="1560" y="182" text-anchor="middle" class="char" fill="#41637d">N</text>
    <text x="1560" y="356" text-anchor="middle" class="char">Missvisning 6° E (fiktiv)</text>
  </g>

  <!-- frame -->
  <rect x="1" y="1" width="1798" height="1198" fill="none" stroke="#b3a26b" stroke-width="2"/>

  <!-- WATERMARK — always present, never removable (SPEC §20.1) -->
  <text x="900" y="1164" text-anchor="middle" class="wm">ÖVNINGSKORT — EJ FÖR NAVIGATION</text>
  <text x="900" y="600" text-anchor="middle" class="wm" opacity="0.13" transform="rotate(-18 900 600)" font-size="54">ÖVNINGSKORT — EJ FÖR NAVIGATION</text>
  <text x="30" y="1164" class="char">Grundviken-v1 · fiktivt övningsområde · Sjöklart</text>
</svg>
